# Wavefront OBJ file automatically generated by Tiled2Unity

# Vertices (Count = 170)
v 0 -64 0
v -64 -64 0
v -64 0 0
v 0 0 0
v -128 -64 0
v -128 0 0
v -192 -64 0
v -192 0 0
v -256 -64 0
v -256 0 0
v -320 -64 0
v -320 0 0
v -384 -64 0
v -384 0 0
v -448 -64 0
v -448 0 0
v -512 -64 0
v -512 0 0
v -576 -64 0
v -576 0 0
v -640 -64 0
v -640 0 0
v -704 -64 0
v -704 0 0
v -768 -64 0
v -768 0 0
v -832 -64 0
v -832 0 0
v -896 -64 0
v -896 0 0
v -960 -64 0
v -960 0 0
v -1024 -64 0
v -1024 0 0
v 0 -128 0
v -64 -128 0
v -128 -128 0
v -192 -128 0
v -256 -128 0
v -320 -128 0
v -384 -128 0
v -448 -128 0
v -512 -128 0
v -576 -128 0
v -640 -128 0
v -704 -128 0
v -768 -128 0
v -832 -128 0
v -896 -128 0
v -960 -128 0
v -1024 -128 0
v 0 -192 0
v -64 -192 0
v -128 -192 0
v -192 -192 0
v -256 -192 0
v -320 -192 0
v -384 -192 0
v -448 -192 0
v -512 -192 0
v -576 -192 0
v -640 -192 0
v -704 -192 0
v -768 -192 0
v -832 -192 0
v -896 -192 0
v -960 -192 0
v -1024 -192 0
v 0 -256 0
v -64 -256 0
v -128 -256 0
v -192 -256 0
v -256 -256 0
v -320 -256 0
v -384 -256 0
v -448 -256 0
v -512 -256 0
v -576 -256 0
v -640 -256 0
v -704 -256 0
v -768 -256 0
v -832 -256 0
v -896 -256 0
v -960 -256 0
v -1024 -256 0
v 0 -320 0
v -64 -320 0
v -128 -320 0
v -192 -320 0
v -256 -320 0
v -320 -320 0
v -384 -320 0
v -448 -320 0
v -512 -320 0
v -576 -320 0
v -640 -320 0
v -704 -320 0
v -768 -320 0
v -832 -320 0
v -896 -320 0
v -960 -320 0
v -1024 -320 0
v 0 -384 0
v -64 -384 0
v -128 -384 0
v -192 -384 0
v -256 -384 0
v -320 -384 0
v -384 -384 0
v -448 -384 0
v -512 -384 0
v -576 -384 0
v -640 -384 0
v -704 -384 0
v -768 -384 0
v -832 -384 0
v -896 -384 0
v -960 -384 0
v -1024 -384 0
v 0 -448 0
v -64 -448 0
v -128 -448 0
v -192 -448 0
v -256 -448 0
v -320 -448 0
v -384 -448 0
v -448 -448 0
v -512 -448 0
v -576 -448 0
v -640 -448 0
v -704 -448 0
v -768 -448 0
v -832 -448 0
v -896 -448 0
v -960 -448 0
v -1024 -448 0
v 0 -512 0
v -64 -512 0
v -128 -512 0
v -192 -512 0
v -256 -512 0
v -320 -512 0
v -384 -512 0
v -448 -512 0
v -512 -512 0
v -576 -512 0
v -640 -512 0
v -704 -512 0
v -768 -512 0
v -832 -512 0
v -896 -512 0
v -960 -512 0
v -1024 -512 0
v 0 -576 0
v -64 -576 0
v -128 -576 0
v -192 -576 0
v -256 -576 0
v -320 -576 0
v -384 -576 0
v -448 -576 0
v -512 -576 0
v -576 -576 0
v -640 -576 0
v -704 -576 0
v -768 -576 0
v -832 -576 0
v -896 -576 0
v -960 -576 0
v -1024 -576 0

# Texture Coorindates (Count = 8)
vt 0.0001220703 0.0001220703
vt 0.9998779 0.0001220703
vt 0.9998779 0.9998779
vt 0.0001220703 0.9998779
vt 1.000122 0.0001220703
vt -0.0001220703 0.0001220703
vt -0.0001220703 0.9998779
vt 1.000122 0.9998779

# Normal
vn 0 0 -1

# Groups (Count = 4)
g mesh_[00]_[29]
f  1/1/1  2/2/1  3/3/1  4/4/1 
f  2/1/1  5/2/1  6/3/1  3/4/1 
f  5/1/1  7/2/1  8/3/1  6/4/1 
f  7/1/1  9/2/1  10/3/1  8/4/1 
f  25/5/1  27/6/1  28/7/1  26/8/1 
f  27/5/1  29/6/1  30/7/1  28/8/1 
f  29/5/1  31/6/1  32/7/1  30/8/1 
f  31/5/1  33/6/1  34/7/1  32/8/1 
f  35/1/1  36/2/1  2/3/1  1/4/1 
f  37/1/1  38/2/1  7/3/1  5/4/1 
f  38/1/1  39/2/1  9/3/1  7/4/1 
f  39/1/1  40/2/1  11/3/1  9/4/1 
f  40/1/1  41/2/1  13/3/1  11/4/1 
f  41/1/1  42/2/1  15/3/1  13/4/1 
f  44/5/1  45/6/1  21/7/1  19/8/1 
f  45/5/1  46/6/1  23/7/1  21/8/1 
f  46/5/1  47/6/1  25/7/1  23/8/1 
f  47/5/1  48/6/1  27/7/1  25/8/1 
f  48/5/1  49/6/1  29/7/1  27/8/1 
f  50/5/1  51/6/1  33/7/1  31/8/1 
f  52/1/1  53/2/1  36/3/1  35/4/1 
f  54/1/1  55/2/1  38/3/1  37/4/1 
f  55/1/1  56/2/1  39/3/1  38/4/1 
f  56/1/1  57/2/1  40/3/1  39/4/1 
f  57/1/1  58/2/1  41/3/1  40/4/1 
f  58/1/1  59/2/1  42/3/1  41/4/1 
f  61/5/1  62/6/1  45/7/1  44/8/1 
f  62/5/1  63/6/1  46/7/1  45/8/1 
f  63/5/1  64/6/1  47/7/1  46/8/1 
f  64/5/1  65/6/1  48/7/1  47/8/1 
f  65/5/1  66/6/1  49/7/1  48/8/1 
f  67/5/1  68/6/1  51/7/1  50/8/1 
f  69/1/1  70/2/1  53/3/1  52/4/1 
f  71/1/1  72/2/1  55/3/1  54/4/1 
f  72/1/1  73/2/1  56/3/1  55/4/1 
f  74/1/1  75/2/1  58/3/1  57/4/1 
f  75/1/1  76/2/1  59/3/1  58/4/1 
f  78/5/1  79/6/1  62/7/1  61/8/1 
f  79/5/1  80/6/1  63/7/1  62/8/1 
f  81/5/1  82/6/1  65/7/1  64/8/1 
f  82/5/1  83/6/1  66/7/1  65/8/1 
f  84/5/1  85/6/1  68/7/1  67/8/1 
f  86/1/1  87/2/1  70/3/1  69/4/1 
f  87/1/1  88/2/1  71/3/1  70/4/1 
f  88/1/1  89/2/1  72/3/1  71/4/1 
f  89/1/1  90/2/1  73/3/1  72/4/1 
f  91/1/1  92/2/1  75/3/1  74/4/1 
f  92/1/1  93/2/1  76/3/1  75/4/1 
f  95/5/1  96/6/1  79/7/1  78/8/1 
f  96/5/1  97/6/1  80/7/1  79/8/1 
f  98/5/1  99/6/1  82/7/1  81/8/1 
f  99/5/1  100/6/1  83/7/1  82/8/1 
f  100/5/1  101/6/1  84/7/1  83/8/1 
f  101/5/1  102/6/1  85/7/1  84/8/1 
f  103/1/1  104/2/1  87/3/1  86/4/1 
f  104/1/1  105/2/1  88/3/1  87/4/1 
f  105/1/1  106/2/1  89/3/1  88/4/1 
f  108/1/1  109/2/1  92/3/1  91/4/1 
f  109/1/1  110/2/1  93/3/1  92/4/1 
f  112/5/1  113/6/1  96/7/1  95/8/1 
f  113/5/1  114/6/1  97/7/1  96/8/1 
f  116/5/1  117/6/1  100/7/1  99/8/1 
f  117/5/1  118/6/1  101/7/1  100/8/1 
f  118/5/1  119/6/1  102/7/1  101/8/1 
f  120/1/1  121/2/1  104/3/1  103/4/1 
f  121/1/1  122/2/1  105/3/1  104/4/1 
f  122/1/1  123/2/1  106/3/1  105/4/1 
f  124/1/1  125/2/1  108/3/1  107/4/1 
f  125/1/1  126/2/1  109/3/1  108/4/1 
f  130/5/1  131/6/1  114/7/1  113/8/1 
f  131/5/1  132/6/1  115/7/1  114/8/1 
f  133/5/1  134/6/1  117/7/1  116/8/1 
f  134/5/1  135/6/1  118/7/1  117/8/1 
f  135/5/1  136/6/1  119/7/1  118/8/1 
f  137/1/1  138/2/1  121/3/1  120/4/1 
f  138/1/1  139/2/1  122/3/1  121/4/1 
f  139/1/1  140/2/1  123/3/1  122/4/1 
f  140/1/1  141/2/1  124/3/1  123/4/1 
f  141/1/1  142/2/1  125/3/1  124/4/1 
f  142/1/1  143/2/1  126/3/1  125/4/1 
f  147/5/1  148/6/1  131/7/1  130/8/1 
f  148/5/1  149/6/1  132/7/1  131/8/1 
f  149/5/1  150/6/1  133/7/1  132/8/1 
f  150/5/1  151/6/1  134/7/1  133/8/1 
f  151/5/1  152/6/1  135/7/1  134/8/1 
f  152/5/1  153/6/1  136/7/1  135/8/1 
f  157/1/1  158/2/1  141/3/1  140/4/1 
f  158/1/1  159/2/1  142/3/1  141/4/1 
f  159/1/1  160/2/1  143/3/1  142/4/1 
f  164/5/1  165/6/1  148/7/1  147/8/1 
f  165/5/1  166/6/1  149/7/1  148/8/1 
f  166/5/1  167/6/1  150/7/1  149/8/1 
g mesh_[00]_[30]
f  9/1/1  11/2/1  12/3/1  10/4/1 
f  11/1/1  13/2/1  14/3/1  12/4/1 
f  21/5/1  23/6/1  24/7/1  22/8/1 
f  23/5/1  25/6/1  26/7/1  24/8/1 
f  36/1/1  37/2/1  5/3/1  2/4/1 
f  49/5/1  50/6/1  31/7/1  29/8/1 
f  53/1/1  54/2/1  37/3/1  36/4/1 
f  66/5/1  67/6/1  50/7/1  49/8/1 
f  70/1/1  71/2/1  54/3/1  53/4/1 
f  73/1/1  74/2/1  57/3/1  56/4/1 
f  80/5/1  81/6/1  64/7/1  63/8/1 
f  83/5/1  84/6/1  67/7/1  66/8/1 
f  90/1/1  91/2/1  74/3/1  73/4/1 
f  97/5/1  98/6/1  81/7/1  80/8/1 
f  106/1/1  107/2/1  90/3/1  89/4/1 
f  107/1/1  108/2/1  91/3/1  90/4/1 
f  114/5/1  115/6/1  98/7/1  97/8/1 
f  115/5/1  116/6/1  99/7/1  98/8/1 
f  123/1/1  124/2/1  107/3/1  106/4/1 
f  132/5/1  133/6/1  116/7/1  115/8/1 
f  143/1/1  144/2/1  127/3/1  126/4/1 
f  146/5/1  147/6/1  130/7/1  129/8/1 
f  154/1/1  155/2/1  138/3/1  137/4/1 
f  155/1/1  156/2/1  139/3/1  138/4/1 
f  156/1/1  157/2/1  140/3/1  139/4/1 
f  167/5/1  168/6/1  151/7/1  150/8/1 
f  168/5/1  169/6/1  152/7/1  151/8/1 
f  169/5/1  170/6/1  153/7/1  152/8/1 
g mesh_[00]_[31]
f  13/1/1  15/2/1  16/3/1  14/4/1 
f  19/5/1  21/6/1  22/7/1  20/8/1 
f  126/1/1  127/2/1  110/3/1  109/4/1 
f  129/5/1  130/6/1  113/7/1  112/8/1 
f  160/1/1  161/2/1  144/3/1  143/4/1 
f  163/5/1  164/6/1  147/7/1  146/8/1 
g mesh_[00]_[53]
f  15/5/1  17/6/1  18/7/1  16/8/1 
f  17/1/1  19/2/1  20/3/1  18/4/1 
f  42/5/1  43/6/1  17/7/1  15/8/1 
f  43/1/1  44/2/1  19/3/1  17/4/1 
f  59/5/1  60/6/1  43/7/1  42/8/1 
f  60/1/1  61/2/1  44/3/1  43/4/1 
f  76/5/1  77/6/1  60/7/1  59/8/1 
f  77/1/1  78/2/1  61/3/1  60/4/1 
f  93/5/1  94/6/1  77/7/1  76/8/1 
f  94/1/1  95/2/1  78/3/1  77/4/1 
f  110/5/1  111/6/1  94/7/1  93/8/1 
f  111/1/1  112/2/1  95/3/1  94/4/1 
f  127/5/1  128/6/1  111/7/1  110/8/1 
f  128/1/1  129/2/1  112/3/1  111/4/1 
f  144/5/1  145/6/1  128/7/1  127/8/1 
f  145/1/1  146/2/1  129/3/1  128/4/1 
f  161/5/1  162/6/1  145/7/1  144/8/1 
f  162/1/1  163/2/1  146/3/1  145/4/1 
