# Wavefront OBJ file automatically generated by Tiled2Unity

# Vertices (Count = 170)
v 0 -64 0
v -64 -64 0
v -64 0 0
v 0 0 0
v -128 -64 0
v -128 0 0
v -192 -64 0
v -192 0 0
v -256 -64 0
v -256 0 0
v -320 -64 0
v -320 0 0
v -384 -64 0
v -384 0 0
v -448 -64 0
v -448 0 0
v -512 -64 0
v -512 0 0
v -576 -64 0
v -576 0 0
v -640 -64 0
v -640 0 0
v -704 -64 0
v -704 0 0
v -768 -64 0
v -768 0 0
v -832 -64 0
v -832 0 0
v -896 -64 0
v -896 0 0
v -960 -64 0
v -960 0 0
v -1024 -64 0
v -1024 0 0
v 0 -128 0
v -64 -128 0
v -128 -128 0
v -192 -128 0
v -256 -128 0
v -320 -128 0
v -384 -128 0
v -448 -128 0
v -512 -128 0
v -576 -128 0
v -640 -128 0
v -704 -128 0
v -768 -128 0
v -832 -128 0
v -896 -128 0
v -960 -128 0
v -1024 -128 0
v 0 -192 0
v -64 -192 0
v -128 -192 0
v -192 -192 0
v -256 -192 0
v -320 -192 0
v -384 -192 0
v -448 -192 0
v -512 -192 0
v -576 -192 0
v -640 -192 0
v -704 -192 0
v -768 -192 0
v -832 -192 0
v -896 -192 0
v -960 -192 0
v -1024 -192 0
v 0 -256 0
v -64 -256 0
v -128 -256 0
v -192 -256 0
v -256 -256 0
v -320 -256 0
v -384 -256 0
v -448 -256 0
v -512 -256 0
v -576 -256 0
v -640 -256 0
v -704 -256 0
v -768 -256 0
v -832 -256 0
v -896 -256 0
v -960 -256 0
v -1024 -256 0
v 0 -320 0
v -64 -320 0
v -128 -320 0
v -192 -320 0
v -256 -320 0
v -320 -320 0
v -384 -320 0
v -448 -320 0
v -512 -320 0
v -576 -320 0
v -640 -320 0
v -704 -320 0
v -768 -320 0
v -832 -320 0
v -896 -320 0
v -960 -320 0
v -1024 -320 0
v 0 -384 0
v -64 -384 0
v -128 -384 0
v -192 -384 0
v -256 -384 0
v -320 -384 0
v -384 -384 0
v -448 -384 0
v -512 -384 0
v -576 -384 0
v -640 -384 0
v -704 -384 0
v -768 -384 0
v -832 -384 0
v -896 -384 0
v -960 -384 0
v -1024 -384 0
v 0 -448 0
v -64 -448 0
v -128 -448 0
v -192 -448 0
v -256 -448 0
v -320 -448 0
v -384 -448 0
v -448 -448 0
v -512 -448 0
v -576 -448 0
v -640 -448 0
v -704 -448 0
v -768 -448 0
v -832 -448 0
v -896 -448 0
v -960 -448 0
v -1024 -448 0
v 0 -512 0
v -64 -512 0
v -128 -512 0
v -192 -512 0
v -256 -512 0
v -320 -512 0
v -384 -512 0
v -448 -512 0
v -512 -512 0
v -576 -512 0
v -640 -512 0
v -704 -512 0
v -768 -512 0
v -832 -512 0
v -896 -512 0
v -960 -512 0
v -1024 -512 0
v 0 -576 0
v -64 -576 0
v -128 -576 0
v -192 -576 0
v -256 -576 0
v -320 -576 0
v -384 -576 0
v -448 -576 0
v -512 -576 0
v -576 -576 0
v -640 -576 0
v -704 -576 0
v -768 -576 0
v -832 -576 0
v -896 -576 0
v -960 -576 0
v -1024 -576 0

# Texture Coorindates (Count = 12)
vt 0.0001220703 0.5001221
vt 0.1998779 0.5001221
vt 0.1998779 0.7498779
vt 0.0001220703 0.7498779
vt 0.0001220703 0.0001220703
vt 0.1998779 0.0001220703
vt 0.1998779 0.2498779
vt 0.0001220703 0.2498779
vt 0.0001220703 0.7501221
vt 0.1998779 0.7501221
vt 0.1998779 0.9998779
vt 0.0001220703 0.9998779

# Normal
vn 0 0 -1

# Groups (Count = 3)
g mesh_[00]_[00]
f  1/1/1  2/2/1  3/3/1  4/4/1 
f  2/1/1  5/2/1  6/3/1  3/4/1 
f  5/1/1  7/2/1  8/3/1  6/4/1 
f  7/1/1  9/2/1  10/3/1  8/4/1 
f  9/1/1  11/2/1  12/3/1  10/4/1 
f  11/1/1  13/2/1  14/3/1  12/4/1 
f  13/1/1  15/2/1  16/3/1  14/4/1 
f  15/1/1  17/2/1  18/3/1  16/4/1 
f  17/1/1  19/2/1  20/3/1  18/4/1 
f  19/1/1  21/2/1  22/3/1  20/4/1 
f  21/1/1  23/2/1  24/3/1  22/4/1 
f  23/1/1  25/2/1  26/3/1  24/4/1 
f  25/1/1  27/2/1  28/3/1  26/4/1 
f  27/1/1  29/2/1  30/3/1  28/4/1 
f  29/1/1  31/2/1  32/3/1  30/4/1 
f  31/1/1  33/2/1  34/3/1  32/4/1 
f  35/1/1  36/2/1  2/3/1  1/4/1 
f  36/1/1  37/2/1  5/3/1  2/4/1 
f  37/1/1  38/2/1  7/3/1  5/4/1 
f  38/1/1  39/2/1  9/3/1  7/4/1 
f  39/1/1  40/2/1  11/3/1  9/4/1 
f  40/1/1  41/2/1  13/3/1  11/4/1 
f  41/1/1  42/2/1  15/3/1  13/4/1 
f  42/1/1  43/2/1  17/3/1  15/4/1 
f  43/1/1  44/2/1  19/3/1  17/4/1 
f  44/1/1  45/2/1  21/3/1  19/4/1 
f  45/1/1  46/2/1  23/3/1  21/4/1 
f  46/1/1  47/2/1  25/3/1  23/4/1 
f  47/1/1  48/2/1  27/3/1  25/4/1 
f  48/1/1  49/2/1  29/3/1  27/4/1 
f  49/1/1  50/2/1  31/3/1  29/4/1 
f  50/1/1  51/2/1  33/3/1  31/4/1 
f  52/1/1  53/2/1  36/3/1  35/4/1 
f  53/1/1  54/2/1  37/3/1  36/4/1 
f  54/1/1  55/2/1  38/3/1  37/4/1 
f  55/1/1  56/2/1  39/3/1  38/4/1 
f  56/1/1  57/2/1  40/3/1  39/4/1 
f  57/1/1  58/2/1  41/3/1  40/4/1 
f  58/1/1  59/2/1  42/3/1  41/4/1 
f  59/1/1  60/2/1  43/3/1  42/4/1 
f  60/1/1  61/2/1  44/3/1  43/4/1 
f  61/1/1  62/2/1  45/3/1  44/4/1 
f  62/1/1  63/2/1  46/3/1  45/4/1 
f  63/1/1  64/2/1  47/3/1  46/4/1 
f  64/1/1  65/2/1  48/3/1  47/4/1 
f  65/1/1  66/2/1  49/3/1  48/4/1 
f  66/1/1  67/2/1  50/3/1  49/4/1 
f  67/1/1  68/2/1  51/3/1  50/4/1 
f  69/1/1  70/2/1  53/3/1  52/4/1 
f  70/1/1  71/2/1  54/3/1  53/4/1 
f  71/1/1  72/2/1  55/3/1  54/4/1 
f  72/1/1  73/2/1  56/3/1  55/4/1 
f  73/1/1  74/2/1  57/3/1  56/4/1 
f  74/1/1  75/2/1  58/3/1  57/4/1 
f  75/1/1  76/2/1  59/3/1  58/4/1 
f  76/1/1  77/2/1  60/3/1  59/4/1 
f  77/1/1  78/2/1  61/3/1  60/4/1 
f  78/1/1  79/2/1  62/3/1  61/4/1 
f  79/1/1  80/2/1  63/3/1  62/4/1 
f  80/1/1  81/2/1  64/3/1  63/4/1 
f  81/1/1  82/2/1  65/3/1  64/4/1 
f  82/1/1  83/2/1  66/3/1  65/4/1 
f  83/1/1  84/2/1  67/3/1  66/4/1 
f  84/1/1  85/2/1  68/3/1  67/4/1 
f  86/1/1  87/2/1  70/3/1  69/4/1 
f  87/1/1  88/2/1  71/3/1  70/4/1 
f  88/1/1  89/2/1  72/3/1  71/4/1 
f  89/1/1  90/2/1  73/3/1  72/4/1 
f  90/1/1  91/2/1  74/3/1  73/4/1 
f  91/1/1  92/2/1  75/3/1  74/4/1 
f  92/1/1  93/2/1  76/3/1  75/4/1 
f  93/1/1  94/2/1  77/3/1  76/4/1 
f  94/1/1  95/2/1  78/3/1  77/4/1 
f  95/1/1  96/2/1  79/3/1  78/4/1 
f  96/1/1  97/2/1  80/3/1  79/4/1 
f  97/1/1  98/2/1  81/3/1  80/4/1 
f  98/1/1  99/2/1  82/3/1  81/4/1 
f  99/1/1  100/2/1  83/3/1  82/4/1 
f  100/1/1  101/2/1  84/3/1  83/4/1 
f  101/1/1  102/2/1  85/3/1  84/4/1 
f  103/1/1  104/2/1  87/3/1  86/4/1 
f  104/1/1  105/2/1  88/3/1  87/4/1 
f  105/1/1  106/2/1  89/3/1  88/4/1 
f  106/1/1  107/2/1  90/3/1  89/4/1 
f  107/1/1  108/2/1  91/3/1  90/4/1 
f  108/1/1  109/2/1  92/3/1  91/4/1 
f  109/1/1  110/2/1  93/3/1  92/4/1 
f  110/1/1  111/2/1  94/3/1  93/4/1 
f  111/1/1  112/2/1  95/3/1  94/4/1 
f  112/1/1  113/2/1  96/3/1  95/4/1 
f  113/1/1  114/2/1  97/3/1  96/4/1 
f  114/1/1  115/2/1  98/3/1  97/4/1 
f  115/1/1  116/2/1  99/3/1  98/4/1 
f  116/1/1  117/2/1  100/3/1  99/4/1 
f  117/1/1  118/2/1  101/3/1  100/4/1 
f  118/1/1  119/2/1  102/3/1  101/4/1 
f  120/1/1  121/2/1  104/3/1  103/4/1 
f  121/1/1  122/2/1  105/3/1  104/4/1 
f  122/1/1  123/2/1  106/3/1  105/4/1 
f  123/1/1  124/2/1  107/3/1  106/4/1 
f  124/1/1  125/2/1  108/3/1  107/4/1 
f  125/1/1  126/2/1  109/3/1  108/4/1 
f  126/1/1  127/2/1  110/3/1  109/4/1 
f  127/1/1  128/2/1  111/3/1  110/4/1 
f  128/1/1  129/2/1  112/3/1  111/4/1 
f  129/1/1  130/2/1  113/3/1  112/4/1 
f  130/1/1  131/2/1  114/3/1  113/4/1 
f  131/1/1  132/2/1  115/3/1  114/4/1 
f  132/1/1  133/2/1  116/3/1  115/4/1 
f  133/1/1  134/2/1  117/3/1  116/4/1 
f  134/1/1  135/2/1  118/3/1  117/4/1 
f  135/1/1  136/2/1  119/3/1  118/4/1 
f  137/1/1  138/2/1  121/3/1  120/4/1 
f  138/1/1  139/2/1  122/3/1  121/4/1 
f  139/1/1  140/2/1  123/3/1  122/4/1 
f  140/1/1  141/2/1  124/3/1  123/4/1 
f  141/1/1  142/2/1  125/3/1  124/4/1 
f  142/1/1  143/2/1  126/3/1  125/4/1 
f  143/1/1  144/2/1  127/3/1  126/4/1 
f  144/1/1  145/2/1  128/3/1  127/4/1 
f  145/1/1  146/2/1  129/3/1  128/4/1 
f  146/1/1  147/2/1  130/3/1  129/4/1 
f  147/1/1  148/2/1  131/3/1  130/4/1 
f  148/1/1  149/2/1  132/3/1  131/4/1 
f  149/1/1  150/2/1  133/3/1  132/4/1 
f  150/1/1  151/2/1  134/3/1  133/4/1 
f  151/1/1  152/2/1  135/3/1  134/4/1 
f  152/1/1  153/2/1  136/3/1  135/4/1 
f  154/1/1  155/2/1  138/3/1  137/4/1 
f  155/1/1  156/2/1  139/3/1  138/4/1 
f  156/1/1  157/2/1  140/3/1  139/4/1 
f  157/1/1  158/2/1  141/3/1  140/4/1 
f  158/1/1  159/2/1  142/3/1  141/4/1 
f  159/1/1  160/2/1  143/3/1  142/4/1 
f  160/1/1  161/2/1  144/3/1  143/4/1 
f  161/1/1  162/2/1  145/3/1  144/4/1 
f  162/1/1  163/2/1  146/3/1  145/4/1 
f  163/1/1  164/2/1  147/3/1  146/4/1 
f  164/1/1  165/2/1  148/3/1  147/4/1 
f  165/1/1  166/2/1  149/3/1  148/4/1 
f  166/1/1  167/2/1  150/3/1  149/4/1 
f  167/1/1  168/2/1  151/3/1  150/4/1 
f  168/1/1  169/2/1  152/3/1  151/4/1 
f  169/1/1  170/2/1  153/3/1  152/4/1 
g mesh_[01]_[00]
f  1/5/1  2/6/1  3/7/1  4/8/1 
f  2/5/1  5/6/1  6/7/1  3/8/1 
f  5/5/1  7/6/1  8/7/1  6/8/1 
f  7/5/1  9/6/1  10/7/1  8/8/1 
f  9/5/1  11/6/1  12/7/1  10/8/1 
f  11/5/1  13/6/1  14/7/1  12/8/1 
f  13/5/1  15/6/1  16/7/1  14/8/1 
f  15/5/1  17/6/1  18/7/1  16/8/1 
f  17/5/1  19/6/1  20/7/1  18/8/1 
f  19/5/1  21/6/1  22/7/1  20/8/1 
f  21/5/1  23/6/1  24/7/1  22/8/1 
f  23/5/1  25/6/1  26/7/1  24/8/1 
f  25/5/1  27/6/1  28/7/1  26/8/1 
f  27/5/1  29/6/1  30/7/1  28/8/1 
f  29/5/1  31/6/1  32/7/1  30/8/1 
f  31/5/1  33/6/1  34/7/1  32/8/1 
f  35/5/1  36/6/1  2/7/1  1/8/1 
f  36/5/1  37/6/1  5/7/1  2/8/1 
f  37/5/1  38/6/1  7/7/1  5/8/1 
f  38/5/1  39/6/1  9/7/1  7/8/1 
f  39/5/1  40/6/1  11/7/1  9/8/1 
f  40/5/1  41/6/1  13/7/1  11/8/1 
f  41/5/1  42/6/1  15/7/1  13/8/1 
f  42/5/1  43/6/1  17/7/1  15/8/1 
f  43/5/1  44/6/1  19/7/1  17/8/1 
f  44/5/1  45/6/1  21/7/1  19/8/1 
f  45/5/1  46/6/1  23/7/1  21/8/1 
f  46/5/1  47/6/1  25/7/1  23/8/1 
f  47/5/1  48/6/1  27/7/1  25/8/1 
f  48/5/1  49/6/1  29/7/1  27/8/1 
f  49/5/1  50/6/1  31/7/1  29/8/1 
f  50/5/1  51/6/1  33/7/1  31/8/1 
f  52/5/1  53/6/1  36/7/1  35/8/1 
f  53/5/1  54/6/1  37/7/1  36/8/1 
f  54/5/1  55/6/1  38/7/1  37/8/1 
f  55/5/1  56/6/1  39/7/1  38/8/1 
f  56/5/1  57/6/1  40/7/1  39/8/1 
f  57/5/1  58/6/1  41/7/1  40/8/1 
f  58/5/1  59/6/1  42/7/1  41/8/1 
f  59/5/1  60/6/1  43/7/1  42/8/1 
f  60/5/1  61/6/1  44/7/1  43/8/1 
f  61/5/1  62/6/1  45/7/1  44/8/1 
f  62/5/1  63/6/1  46/7/1  45/8/1 
f  63/5/1  64/6/1  47/7/1  46/8/1 
f  64/5/1  65/6/1  48/7/1  47/8/1 
f  65/5/1  66/6/1  49/7/1  48/8/1 
f  66/5/1  67/6/1  50/7/1  49/8/1 
f  67/5/1  68/6/1  51/7/1  50/8/1 
f  69/5/1  70/6/1  53/7/1  52/8/1 
f  70/5/1  71/6/1  54/7/1  53/8/1 
f  71/5/1  72/6/1  55/7/1  54/8/1 
f  72/5/1  73/6/1  56/7/1  55/8/1 
f  73/5/1  74/6/1  57/7/1  56/8/1 
f  74/5/1  75/6/1  58/7/1  57/8/1 
f  75/5/1  76/6/1  59/7/1  58/8/1 
f  76/5/1  77/6/1  60/7/1  59/8/1 
f  77/5/1  78/6/1  61/7/1  60/8/1 
f  78/5/1  79/6/1  62/7/1  61/8/1 
f  79/5/1  80/6/1  63/7/1  62/8/1 
f  80/5/1  81/6/1  64/7/1  63/8/1 
f  81/5/1  82/6/1  65/7/1  64/8/1 
f  82/5/1  83/6/1  66/7/1  65/8/1 
f  83/5/1  84/6/1  67/7/1  66/8/1 
f  84/5/1  85/6/1  68/7/1  67/8/1 
f  86/5/1  87/6/1  70/7/1  69/8/1 
f  87/5/1  88/6/1  71/7/1  70/8/1 
f  88/5/1  89/6/1  72/7/1  71/8/1 
f  89/5/1  90/6/1  73/7/1  72/8/1 
f  90/5/1  91/6/1  74/7/1  73/8/1 
f  91/5/1  92/6/1  75/7/1  74/8/1 
f  92/5/1  93/6/1  76/7/1  75/8/1 
f  93/5/1  94/6/1  77/7/1  76/8/1 
f  94/5/1  95/6/1  78/7/1  77/8/1 
f  95/5/1  96/6/1  79/7/1  78/8/1 
f  96/5/1  97/6/1  80/7/1  79/8/1 
f  97/5/1  98/6/1  81/7/1  80/8/1 
f  98/5/1  99/6/1  82/7/1  81/8/1 
f  99/5/1  100/6/1  83/7/1  82/8/1 
f  100/5/1  101/6/1  84/7/1  83/8/1 
f  101/5/1  102/6/1  85/7/1  84/8/1 
f  103/5/1  104/6/1  87/7/1  86/8/1 
f  104/5/1  105/6/1  88/7/1  87/8/1 
f  105/5/1  106/6/1  89/7/1  88/8/1 
f  106/5/1  107/6/1  90/7/1  89/8/1 
f  107/5/1  108/6/1  91/7/1  90/8/1 
f  108/5/1  109/6/1  92/7/1  91/8/1 
f  109/5/1  110/6/1  93/7/1  92/8/1 
f  110/5/1  111/6/1  94/7/1  93/8/1 
f  111/5/1  112/6/1  95/7/1  94/8/1 
f  112/5/1  113/6/1  96/7/1  95/8/1 
f  113/5/1  114/6/1  97/7/1  96/8/1 
f  114/5/1  115/6/1  98/7/1  97/8/1 
f  115/5/1  116/6/1  99/7/1  98/8/1 
f  116/5/1  117/6/1  100/7/1  99/8/1 
f  117/5/1  118/6/1  101/7/1  100/8/1 
f  118/5/1  119/6/1  102/7/1  101/8/1 
f  120/5/1  121/6/1  104/7/1  103/8/1 
f  121/5/1  122/6/1  105/7/1  104/8/1 
f  122/5/1  123/6/1  106/7/1  105/8/1 
f  123/5/1  124/6/1  107/7/1  106/8/1 
f  124/5/1  125/6/1  108/7/1  107/8/1 
f  125/5/1  126/6/1  109/7/1  108/8/1 
f  126/5/1  127/6/1  110/7/1  109/8/1 
f  127/5/1  128/6/1  111/7/1  110/8/1 
f  128/5/1  129/6/1  112/7/1  111/8/1 
f  129/5/1  130/6/1  113/7/1  112/8/1 
f  130/5/1  131/6/1  114/7/1  113/8/1 
f  131/5/1  132/6/1  115/7/1  114/8/1 
f  132/5/1  133/6/1  116/7/1  115/8/1 
f  133/5/1  134/6/1  117/7/1  116/8/1 
f  134/5/1  135/6/1  118/7/1  117/8/1 
f  135/5/1  136/6/1  119/7/1  118/8/1 
f  137/5/1  138/6/1  121/7/1  120/8/1 
f  138/5/1  139/6/1  122/7/1  121/8/1 
f  139/5/1  140/6/1  123/7/1  122/8/1 
f  140/5/1  141/6/1  124/7/1  123/8/1 
f  141/5/1  142/6/1  125/7/1  124/8/1 
f  142/5/1  143/6/1  126/7/1  125/8/1 
f  143/5/1  144/6/1  127/7/1  126/8/1 
f  144/5/1  145/6/1  128/7/1  127/8/1 
f  145/5/1  146/6/1  129/7/1  128/8/1 
f  146/5/1  147/6/1  130/7/1  129/8/1 
f  147/5/1  148/6/1  131/7/1  130/8/1 
f  148/5/1  149/6/1  132/7/1  131/8/1 
f  149/5/1  150/6/1  133/7/1  132/8/1 
f  150/5/1  151/6/1  134/7/1  133/8/1 
f  151/5/1  152/6/1  135/7/1  134/8/1 
f  152/5/1  153/6/1  136/7/1  135/8/1 
f  154/5/1  155/6/1  138/7/1  137/8/1 
f  155/5/1  156/6/1  139/7/1  138/8/1 
f  156/5/1  157/6/1  140/7/1  139/8/1 
f  157/5/1  158/6/1  141/7/1  140/8/1 
f  158/5/1  159/6/1  142/7/1  141/8/1 
f  159/5/1  160/6/1  143/7/1  142/8/1 
f  160/5/1  161/6/1  144/7/1  143/8/1 
f  161/5/1  162/6/1  145/7/1  144/8/1 
f  162/5/1  163/6/1  146/7/1  145/8/1 
f  163/5/1  164/6/1  147/7/1  146/8/1 
f  164/5/1  165/6/1  148/7/1  147/8/1 
f  165/5/1  166/6/1  149/7/1  148/8/1 
f  166/5/1  167/6/1  150/7/1  149/8/1 
f  167/5/1  168/6/1  151/7/1  150/8/1 
f  168/5/1  169/6/1  152/7/1  151/8/1 
f  169/5/1  170/6/1  153/7/1  152/8/1 
g mesh_[02]_[00]
f  1/9/1  2/10/1  3/11/1  4/12/1 
f  2/9/1  5/10/1  6/11/1  3/12/1 
f  5/9/1  7/10/1  8/11/1  6/12/1 
f  7/9/1  9/10/1  10/11/1  8/12/1 
f  9/9/1  11/10/1  12/11/1  10/12/1 
f  11/9/1  13/10/1  14/11/1  12/12/1 
f  13/9/1  15/10/1  16/11/1  14/12/1 
f  15/9/1  17/10/1  18/11/1  16/12/1 
f  17/9/1  19/10/1  20/11/1  18/12/1 
f  19/9/1  21/10/1  22/11/1  20/12/1 
f  21/9/1  23/10/1  24/11/1  22/12/1 
f  23/9/1  25/10/1  26/11/1  24/12/1 
f  25/9/1  27/10/1  28/11/1  26/12/1 
f  27/9/1  29/10/1  30/11/1  28/12/1 
f  29/9/1  31/10/1  32/11/1  30/12/1 
f  31/9/1  33/10/1  34/11/1  32/12/1 
f  35/9/1  36/10/1  2/11/1  1/12/1 
f  36/9/1  37/10/1  5/11/1  2/12/1 
f  37/9/1  38/10/1  7/11/1  5/12/1 
f  38/9/1  39/10/1  9/11/1  7/12/1 
f  39/9/1  40/10/1  11/11/1  9/12/1 
f  40/9/1  41/10/1  13/11/1  11/12/1 
f  41/9/1  42/10/1  15/11/1  13/12/1 
f  42/9/1  43/10/1  17/11/1  15/12/1 
f  43/9/1  44/10/1  19/11/1  17/12/1 
f  44/9/1  45/10/1  21/11/1  19/12/1 
f  45/9/1  46/10/1  23/11/1  21/12/1 
f  46/9/1  47/10/1  25/11/1  23/12/1 
f  47/9/1  48/10/1  27/11/1  25/12/1 
f  48/9/1  49/10/1  29/11/1  27/12/1 
f  49/9/1  50/10/1  31/11/1  29/12/1 
f  50/9/1  51/10/1  33/11/1  31/12/1 
f  52/9/1  53/10/1  36/11/1  35/12/1 
f  53/9/1  54/10/1  37/11/1  36/12/1 
f  54/9/1  55/10/1  38/11/1  37/12/1 
f  55/9/1  56/10/1  39/11/1  38/12/1 
f  56/9/1  57/10/1  40/11/1  39/12/1 
f  57/9/1  58/10/1  41/11/1  40/12/1 
f  58/9/1  59/10/1  42/11/1  41/12/1 
f  59/9/1  60/10/1  43/11/1  42/12/1 
f  60/9/1  61/10/1  44/11/1  43/12/1 
f  61/9/1  62/10/1  45/11/1  44/12/1 
f  62/9/1  63/10/1  46/11/1  45/12/1 
f  63/9/1  64/10/1  47/11/1  46/12/1 
f  64/9/1  65/10/1  48/11/1  47/12/1 
f  65/9/1  66/10/1  49/11/1  48/12/1 
f  66/9/1  67/10/1  50/11/1  49/12/1 
f  67/9/1  68/10/1  51/11/1  50/12/1 
f  69/9/1  70/10/1  53/11/1  52/12/1 
f  70/9/1  71/10/1  54/11/1  53/12/1 
f  71/9/1  72/10/1  55/11/1  54/12/1 
f  72/9/1  73/10/1  56/11/1  55/12/1 
f  73/9/1  74/10/1  57/11/1  56/12/1 
f  74/9/1  75/10/1  58/11/1  57/12/1 
f  75/9/1  76/10/1  59/11/1  58/12/1 
f  76/9/1  77/10/1  60/11/1  59/12/1 
f  77/9/1  78/10/1  61/11/1  60/12/1 
f  78/9/1  79/10/1  62/11/1  61/12/1 
f  79/9/1  80/10/1  63/11/1  62/12/1 
f  80/9/1  81/10/1  64/11/1  63/12/1 
f  81/9/1  82/10/1  65/11/1  64/12/1 
f  82/9/1  83/10/1  66/11/1  65/12/1 
f  83/9/1  84/10/1  67/11/1  66/12/1 
f  84/9/1  85/10/1  68/11/1  67/12/1 
f  86/9/1  87/10/1  70/11/1  69/12/1 
f  87/9/1  88/10/1  71/11/1  70/12/1 
f  88/9/1  89/10/1  72/11/1  71/12/1 
f  89/9/1  90/10/1  73/11/1  72/12/1 
f  90/9/1  91/10/1  74/11/1  73/12/1 
f  91/9/1  92/10/1  75/11/1  74/12/1 
f  92/9/1  93/10/1  76/11/1  75/12/1 
f  93/9/1  94/10/1  77/11/1  76/12/1 
f  94/9/1  95/10/1  78/11/1  77/12/1 
f  95/9/1  96/10/1  79/11/1  78/12/1 
f  96/9/1  97/10/1  80/11/1  79/12/1 
f  97/9/1  98/10/1  81/11/1  80/12/1 
f  98/9/1  99/10/1  82/11/1  81/12/1 
f  99/9/1  100/10/1  83/11/1  82/12/1 
f  100/9/1  101/10/1  84/11/1  83/12/1 
f  101/9/1  102/10/1  85/11/1  84/12/1 
f  103/9/1  104/10/1  87/11/1  86/12/1 
f  104/9/1  105/10/1  88/11/1  87/12/1 
f  105/9/1  106/10/1  89/11/1  88/12/1 
f  106/9/1  107/10/1  90/11/1  89/12/1 
f  107/9/1  108/10/1  91/11/1  90/12/1 
f  108/9/1  109/10/1  92/11/1  91/12/1 
f  109/9/1  110/10/1  93/11/1  92/12/1 
f  110/9/1  111/10/1  94/11/1  93/12/1 
f  111/9/1  112/10/1  95/11/1  94/12/1 
f  112/9/1  113/10/1  96/11/1  95/12/1 
f  113/9/1  114/10/1  97/11/1  96/12/1 
f  114/9/1  115/10/1  98/11/1  97/12/1 
f  115/9/1  116/10/1  99/11/1  98/12/1 
f  116/9/1  117/10/1  100/11/1  99/12/1 
f  117/9/1  118/10/1  101/11/1  100/12/1 
f  118/9/1  119/10/1  102/11/1  101/12/1 
f  120/9/1  121/10/1  104/11/1  103/12/1 
f  121/9/1  122/10/1  105/11/1  104/12/1 
f  122/9/1  123/10/1  106/11/1  105/12/1 
f  123/9/1  124/10/1  107/11/1  106/12/1 
f  124/9/1  125/10/1  108/11/1  107/12/1 
f  125/9/1  126/10/1  109/11/1  108/12/1 
f  126/9/1  127/10/1  110/11/1  109/12/1 
f  127/9/1  128/10/1  111/11/1  110/12/1 
f  128/9/1  129/10/1  112/11/1  111/12/1 
f  129/9/1  130/10/1  113/11/1  112/12/1 
f  130/9/1  131/10/1  114/11/1  113/12/1 
f  131/9/1  132/10/1  115/11/1  114/12/1 
f  132/9/1  133/10/1  116/11/1  115/12/1 
f  133/9/1  134/10/1  117/11/1  116/12/1 
f  134/9/1  135/10/1  118/11/1  117/12/1 
f  135/9/1  136/10/1  119/11/1  118/12/1 
f  137/9/1  138/10/1  121/11/1  120/12/1 
f  138/9/1  139/10/1  122/11/1  121/12/1 
f  139/9/1  140/10/1  123/11/1  122/12/1 
f  140/9/1  141/10/1  124/11/1  123/12/1 
f  141/9/1  142/10/1  125/11/1  124/12/1 
f  142/9/1  143/10/1  126/11/1  125/12/1 
f  143/9/1  144/10/1  127/11/1  126/12/1 
f  144/9/1  145/10/1  128/11/1  127/12/1 
f  145/9/1  146/10/1  129/11/1  128/12/1 
f  146/9/1  147/10/1  130/11/1  129/12/1 
f  147/9/1  148/10/1  131/11/1  130/12/1 
f  148/9/1  149/10/1  132/11/1  131/12/1 
f  149/9/1  150/10/1  133/11/1  132/12/1 
f  150/9/1  151/10/1  134/11/1  133/12/1 
f  151/9/1  152/10/1  135/11/1  134/12/1 
f  152/9/1  153/10/1  136/11/1  135/12/1 
f  154/9/1  155/10/1  138/11/1  137/12/1 
f  155/9/1  156/10/1  139/11/1  138/12/1 
f  156/9/1  157/10/1  140/11/1  139/12/1 
f  157/9/1  158/10/1  141/11/1  140/12/1 
f  158/9/1  159/10/1  142/11/1  141/12/1 
f  159/9/1  160/10/1  143/11/1  142/12/1 
f  160/9/1  161/10/1  144/11/1  143/12/1 
f  161/9/1  162/10/1  145/11/1  144/12/1 
f  162/9/1  163/10/1  146/11/1  145/12/1 
f  163/9/1  164/10/1  147/11/1  146/12/1 
f  164/9/1  165/10/1  148/11/1  147/12/1 
f  165/9/1  166/10/1  149/11/1  148/12/1 
f  166/9/1  167/10/1  150/11/1  149/12/1 
f  167/9/1  168/10/1  151/11/1  150/12/1 
f  168/9/1  169/10/1  152/11/1  151/12/1 
f  169/9/1  170/10/1  153/11/1  152/12/1 
